# xmcd
#
# Track frame offsets: 
#        150
#        15295
#        30632
#        42725
#        64357
#        78711
#        91401
#        104506
#        117320
#        128787
#        143793
#        158816
#        175563
#        187916
#        201596
#
# Disc length: 2857 seconds
#
# Revision: 7
# Processed by: cddbd v1.5.1PL0 Copyright (c) Steve Scherf et al.
# Submitted via: ExactAudioCopy v0.95a5
#
DISCID=cf0b270f
DTITLE=Various Artist - Essential Women In Blues (Disk 2 of 2)
DYEAR=1997
DGENRE=Blues
TTITLE0=Michelle Willson - Better Left Unsaid
TTITLE1=Katie Webster - Two-Fisted Mama
TTITLE2=Big Maybelle - Gabbin' Blues
TTITLE3=Becky Barksdale - Satisfy Me
TTITLE4="Ma" Rainey - "Ma" Rainey's Black Bottom
TTITLE5=Sippie Wallace - Black Snake Blues
TTITLE6=Dinah Washington - Evil Gal Blues
TTITLE7=Willie Mae Thornton - Hound Dog
TTITLE8=Nina Simone - I Want a Little Sugar In My Bowl
TTITLE9=Rory Block - The Spirit Returns
TTITLE10=Mamie Smith - Crazy Blues
TTITLE11=Francine Reed - One Monkey (Don't Stop No Show)
TTITLE12=Hadda Brooks - That's My Desire
TTITLE13=Blu Lu Barker - Don't You Feel My Leg
TTITLE14=Memphis Minnie - Me and My Chauffeur Blues
EXTD=LABEL =Platinum Entertainment, Inc.\nID =5141612572\nUPC =7514
EXTD=16-1257-25\nCOPYRIGHT =1997\n*****\nYEAR: 1997
EXTT0=
EXTT1=
EXTT2=
EXTT3=
EXTT4=
EXTT5=
EXTT6=
EXTT7=
EXTT8=
EXTT9=
EXTT10=
EXTT11=
EXTT12=
EXTT13=
EXTT14=
PLAYORDER=
